# xmcd
#
# Track frame offsets: 
#        150
#        10906
#        28742
#        44757
#        46382
#        59804
#        82632
#        85589
#        98437
#        127158
#        131008
#        143044
#        155524
#        158651
#        177012
#        201524
#        206063
#        218392
#        219724
#        223755
#        243742
#        253361
#        270356
#        289158
#        302865
#        319906
#        327013
#
# Disc length: 4648 seconds
#
# Revision: 0
# Processed by: cddbd v1.5.2PL0 Copyright (c) Steve Scherf et al.
# Submitted via: ExactAudioCopy v0.95b4
#
DISCID=9712261b
DTITLE=The Beatles  - AB  Road - Complete Purple Chick Set v1.1 Jan.28
DTITLE=Various Artist - D3  FLAC
DYEAR=1900
DGENRE=
TTITLE0=Dig A Pony 28.25
TTITLE1=Dig A Pony 28.26
TTITLE2=Dig A Pony 28.27
TTITLE3=Roll Announcement
TTITLE4=I Will Always Look For You 28.28
TTITLE5=Dig A Pony 28.29
TTITLE6=Dig A Pony 28.30
TTITLE7=Dig A Pony 28.31
TTITLE8=Dig A Pony 28.32
TTITLE9=Dig A Pony 28.33
TTITLE10=Dig A Pony 28.34
TTITLE11=Dig A Pony 28.35
TTITLE12=Dig A Pony 28.36
TTITLE13=Dig A Pony 28.37
TTITLE14=Get Back 28.38
TTITLE15=Get Back 28.39
TTITLE16=Love Me Do 28.40
TTITLE17=Dig A Pony 28.41
TTITLE18=Teddy Boy 28.42
TTITLE19=Get Back 28.43
TTITLE20=Don't Let Me Down 28.44
TTITLE21=Don't Let Me Down 28.45
TTITLE22=I've Got A Feeling 28.46
TTITLE23=Don't Let Me Down 28.47
TTITLE24=Don't Let Me Down 28.48
TTITLE25=I've Got A Feeling 28.49
TTITLE26=One After 909 28.50
EXTD=
EXTT0=
EXTT1=
EXTT2=
EXTT3=
EXTT4=
EXTT5=
EXTT6=
EXTT7=
EXTT8=
EXTT9=
EXTT10=
EXTT11=
EXTT12=
EXTT13=
EXTT14=
EXTT15=
EXTT16=
EXTT17=
EXTT18=
EXTT19=
EXTT20=
EXTT21=
EXTT22=
EXTT23=
EXTT24=
EXTT25=
EXTT26=
PLAYORDER=
